<svg width="470" height="470" viewBox="0 0 470 470" fill="none" xmlns="http://www.w3.org/2000/svg">
<g clip-path="url(#clip0_1494_329)">
<circle cx="235" cy="235" r="230" fill="#0CFFBB" stroke="white" stroke-width="10"/>
<path d="M208.4 154.2C212.133 154.733 214.667 155.867 216 157.6C217.467 159.333 218.2 161.6 218.2 164.4C218.2 173.6 213.267 177.867 203.4 177.2L196.4 176.6C188.533 175.933 180.667 175.4 172.8 175C165.067 174.6 156.933 174.4 148.4 174.4H139.4C137.8 194.133 136.133 212.133 134.4 228.4L168.8 227.8C173.733 227.8 177 228.667 178.6 230.4C180.333 232.133 181.2 234.467 181.2 237.4C181.2 241.933 179.867 245.533 177.2 248.2C174.533 250.733 170.733 252 165.8 252H131.6L130.4 260.6C127.6 282.6 121.6 298.267 112.4 307.6C103.333 316.933 90.8 321.6 74.8 321.6C65.7333 321.6 57.4 319.667 49.8 315.8C42.2 311.8 36.6 307 33 301.4C31.5333 299.133 30.8 296.4 30.8 293.2C30.8 290 31.5333 287.2 33 284.8C34.6 282.4 36.5333 281.2 38.8 281.2C40.4 281.2 41.9333 281.733 43.4 282.8C45 283.867 47 285.933 49.4 289C55.8 297.4 63.7333 301.6 73.2 301.6C80.8 301.6 87.1333 298.533 92.2 292.4C97.4 286.133 100.733 276.333 102.2 263L103.4 252H93.8C90.7333 252 88.0667 251.133 85.8 249.4C83.6667 247.667 82.6 245.2 82.6 242C82.6 237.867 83.6667 234.733 85.8 232.6C87.9333 230.333 91.0667 229.2 95.2 229.2C98.9333 229.2 102.6 229.133 106.2 229C107.8 214.333 109.533 196.533 111.4 175.6C97 176.933 86.8667 179.267 81 182.6C75.1333 185.933 72.2 190.867 72.2 197.4C72.2 201.933 73.5333 206.267 76.2 210.4C77 211.6 77.4 212.8 77.4 214C77.4 216.4 76.0667 218.533 73.4 220.4C70.7333 222.133 67.7333 223 64.4 223C60.8 223 57.7333 221.933 55.2 219.8C53.6 218.467 52.0667 215.733 50.6 211.6C49.1333 207.467 48.4 202.867 48.4 197.8C48.4 181.267 56.8667 169.267 73.8 161.8C90.8667 154.333 115.733 150.6 148.4 150.6C171.067 150.6 191.067 151.8 208.4 154.2ZM219.783 321C214.849 321 211.316 319.933 209.183 317.8C207.049 315.533 205.983 311.333 205.983 305.2C205.983 301.067 206.383 295.8 207.183 289.4C208.116 282.867 209.583 273.933 211.583 262.6C215.049 241.667 217.783 223.533 219.783 208.2C220.983 198.6 221.583 190.6 221.583 184.2C221.583 178.2 219.383 175.2 214.983 175.2C211.516 175.2 207.316 177 202.383 180.6C197.583 184.067 192.249 189.667 186.383 197.4C184.516 199.933 182.449 201.2 180.183 201.2C178.316 201.2 176.649 200.333 175.183 198.6C173.849 196.733 173.183 194.667 173.183 192.4C173.183 190.267 173.583 188.133 174.383 186C175.316 183.733 176.783 181.2 178.783 178.4C185.183 169.467 192.316 162.6 200.183 157.8C208.049 152.867 215.916 150.4 223.783 150.4C231.116 150.4 236.716 152.733 240.583 157.4C244.583 162.067 246.583 168.867 246.583 177.8C246.583 181.4 246.249 185.667 245.583 190.6C244.916 195.4 244.316 199.333 243.783 202.4C243.249 205.467 242.849 207.6 242.583 208.8C250.183 187.067 258.716 171.933 268.183 163.4C277.649 154.733 288.049 150.4 299.383 150.4C308.049 150.4 314.849 153.467 319.783 159.6C324.849 165.733 327.383 174.4 327.383 185.6C327.383 190 326.783 195.467 325.583 202C332.249 183.6 340.049 170.4 348.983 162.4C357.916 154.4 368.183 150.4 379.783 150.4C389.116 150.4 396.249 153.4 401.183 159.4C406.249 165.4 408.783 173.8 408.783 184.6C408.783 190.467 407.916 197.6 406.183 206L393.983 263.2C392.649 269.867 391.983 275.6 391.983 280.4C391.983 286 393.249 290.2 395.783 293C398.449 295.8 402.116 297.2 406.783 297.2C411.183 297.2 415.449 295.733 419.583 292.8C423.849 289.867 428.849 285 434.583 278.2C436.183 276.333 437.983 275.4 439.983 275.4C441.716 275.4 443.049 276.2 443.983 277.8C445.049 279.4 445.583 281.6 445.583 284.4C445.583 289.6 444.316 293.733 441.783 296.8C434.849 305.2 427.983 311.333 421.183 315.2C414.383 319.067 407.249 321 399.783 321C388.449 321 379.583 317.667 373.183 311C366.783 304.2 363.583 295.133 363.583 283.8C363.583 275.933 365.183 264.533 368.383 249.6L376.383 213C376.649 211.8 377.116 209.667 377.783 206.6C378.449 203.533 378.983 200.667 379.383 198C379.783 195.2 379.983 192.467 379.983 189.8C379.983 185.133 379.049 181.667 377.183 179.4C375.449 177 372.916 175.8 369.583 175.8C363.316 175.8 356.716 179.867 349.783 188C342.983 196 336.449 209.333 330.183 228C324.049 246.667 319.049 270.933 315.183 300.8C314.249 308.8 312.583 314.2 310.183 317C307.916 319.667 304.183 321 298.983 321C294.449 321 291.116 319.933 288.983 317.8C286.983 315.667 285.983 311.667 285.983 305.8C285.983 300.333 286.716 293.2 288.183 284.4C289.649 275.467 291.516 265 293.783 253C299.916 220.733 302.983 199.933 302.983 190.6C302.983 185.533 301.983 181.8 299.983 179.4C298.116 177 295.249 175.8 291.383 175.8C284.849 175.8 278.116 179.533 271.183 187C264.249 194.333 257.449 207.467 250.783 226.4C244.249 245.2 238.783 270.667 234.383 302.8C233.449 309.6 232.049 314.333 230.183 317C228.449 319.667 224.983 321 219.783 321Z" fill="black"/>
</g>
<defs>
<clipPath id="clip0_1494_329">
<rect width="470" height="470" fill="white"/>
</clipPath>
</defs>
</svg>
